
<svg width="500px" height="600px" viewBox="0 0 500 600" version="1.1" xmlns="http://www.w3.org/2000/svg" xmlns:xlink="http://www.w3.org/1999/xlink">
    <!-- Generator: Sketch 51.2 (57519) - http://www.bohemiancoding.com/sketch -->
    <desc>Created with Sketch.</desc>
    <defs></defs>
    <g id="Databiz-Group" stroke="none" stroke-width="1" fill="none" fill-rule="evenodd">
        <g id="Desktop-Copy-4">
            <g id="Group-Copy-2">
                <g id="Databiz-Group" transform="translate(50.000000, 100.000000)">
                    <circle id="Circle" fill-opacity="0.75" fill="#0067A5" cx="200" cy="200" r="200"></circle>
                    <g id="Logo" transform="translate(100.000000, 176.000000)" fill="#FFFFFF">
                        <path d="M75.6710231,16.9213561 C75.6710231,16.119676 75.5447705,15.3976838 75.2932253,14.7558596 C75.0412001,14.1149955 74.6854845,13.5706211 74.2275188,13.1236964 C73.7690729,12.6767717 73.2256586,12.3392979 72.5953555,12.109835 C71.9645725,11.8808521 71.2718632,11.7661206 70.5157876,11.7661206 L67.0776838,11.7661206 C66.8482208,11.7661206 66.7349295,11.8808521 66.7349295,12.109835 L66.7349295,28.6081248 C66.7349295,28.8380678 66.8482208,28.9518392 67.0776838,28.9518392 L70.5157876,28.9518392 C71.2718632,28.9518392 71.9645725,28.8380678 72.5953555,28.6081248 C73.2256586,28.3786619 73.7690729,28.0479088 74.2275188,27.6125053 C74.6854845,27.1766217 75.0412001,26.6370477 75.2932253,25.9957036 C75.5447705,25.3543594 75.6710231,24.6213261 75.6710231,23.7966037 L75.6710231,16.9213561 Z M64.499826,32.0457486 C64.1791539,32.0457486 63.9271287,31.9545395 63.7432703,31.7706811 C63.559892,31.5868227 63.4686829,31.3357576 63.4686829,31.0146055 L63.4686829,9.70335434 C63.4686829,9.38316232 63.559892,9.13017702 63.7432703,8.94631863 C63.9271287,8.76486049 64.1791539,8.67173117 64.499826,8.67173117 L70.5157876,8.67173117 C71.7754335,8.67173117 72.9270687,8.88439244 73.9692529,9.30827483 C75.0119172,9.73311731 75.9009661,10.3106151 76.6335194,11.0441284 C77.3670327,11.7776418 77.9339694,12.6494089 78.3352895,13.6565497 C78.7356496,14.6641704 78.9363096,15.7524392 78.9363096,16.9213561 L78.9363096,23.7966037 C78.9363096,24.9650405 78.7356496,26.0533093 78.3352895,27.0618902 C77.9339694,28.069511 77.3670327,28.9412781 76.6335194,29.6738314 C75.9009661,30.4078248 75.0119172,30.9867627 73.9692529,31.409685 C72.9270687,31.8335674 71.7754335,32.0457486 70.5157876,32.0457486 L64.499826,32.0457486 Z" id="Fill-1"></path>
                        <path d="M113.652469,32.0457006 C113.332277,32.0457006 113.081212,31.9549715 112.896394,31.7706331 C112.713495,31.5867747 112.622286,31.3357096 112.622286,31.0150375 L112.622286,12.109787 C112.622286,11.8808041 112.507555,11.7660726 112.278572,11.7660726 L107.121896,11.7660726 C106.801224,11.7660726 106.549199,11.6743834 106.366301,11.4914851 C106.182442,11.3081068 106.090753,11.0560816 106.090753,10.7344494 L106.090753,9.70330633 C106.090753,9.38311431 106.182442,9.13012901 106.366301,8.94627063 C106.549199,8.76481248 106.801224,8.67216322 107.121896,8.67216322 L121.387003,8.67216322 C121.707675,8.67216322 121.96018,8.76481248 122.143558,8.94627063 C122.325497,9.13012901 122.418626,9.38311431 122.418626,9.70330633 L122.418626,10.7344494 C122.418626,11.0560816 122.325497,11.3081068 122.143558,11.4914851 C121.96018,11.6743834 121.707675,11.7660726 121.387003,11.7660726 L116.230807,11.7660726 C116.002304,11.7660726 115.888053,11.8808041 115.888053,12.109787 L115.888053,31.0150375 C115.888053,31.3357096 115.795404,31.5867747 115.612505,31.7706331 C115.429127,31.9549715 115.177102,32.0457006 114.85691,32.0457006 L113.652469,32.0457006 Z" id="Fill-3"></path>
                        <path d="M157.925665,28.9516472 C158.337066,28.9516472 158.761908,28.8892409 159.196832,28.7620282 C159.631755,28.6372157 160.027795,28.4360756 160.38303,28.1619682 C160.738266,27.8864206 161.030615,27.5321452 161.259598,27.0957816 C161.489061,26.6613381 161.602832,26.1332853 161.602832,25.5149835 C161.602832,24.8962016 161.489061,24.3575878 161.259598,23.8991419 C161.030615,23.4411761 160.738266,23.069619 160.38303,22.7820702 C160.027795,22.4964416 159.631755,22.2784998 159.196832,22.1292049 C158.761908,21.97991 158.337066,21.9050225 157.925665,21.9050225 L153.525545,21.9050225 C153.295602,21.9050225 153.18279,22.020234 153.18279,22.249697 L153.18279,28.6079328 C153.18279,28.8383558 153.295602,28.9516472 153.525545,28.9516472 L157.925665,28.9516472 Z M156.550807,18.8115932 C156.963168,18.8115932 157.387051,18.7381458 157.822454,18.5888509 C158.257378,18.440036 158.653417,18.2225743 159.008653,17.9355056 C159.363888,17.6493969 159.655758,17.2773597 159.885221,16.8179538 C160.113243,16.359988 160.228935,15.8218542 160.228935,15.2040324 C160.228935,14.5842904 160.113243,14.0576778 159.885221,13.6217942 C159.655758,13.1868707 159.363888,12.8321152 159.008653,12.5570477 C158.653417,12.2805401 158.257378,12.0808401 157.822454,11.9550675 C157.387051,11.8292949 156.963168,11.7659286 156.550807,11.7659286 L153.525545,11.7659286 C153.295602,11.7659286 153.18279,11.8806601 153.18279,12.109643 L153.18279,18.4683588 C153.18279,18.6992619 153.295602,18.8115932 153.525545,18.8115932 L156.550807,18.8115932 Z M150.947687,32.0455566 C150.626535,32.0455566 150.374989,31.9548275 150.191611,31.770489 C150.007753,31.5866307 149.915584,31.3360456 149.915584,31.0148935 L149.915584,9.70316232 C149.915584,9.3829703 150.007753,9.129985 150.191611,8.94612661 C150.374989,8.76466847 150.626535,8.6720192 150.947687,8.6720192 L156.790831,8.6720192 C157.707723,8.6720192 158.572769,8.83955596 159.386931,9.17078908 C160.199172,9.5029823 160.910123,9.96046805 161.516424,10.5451665 C162.124164,11.129865 162.606133,11.8225743 162.960408,12.6252145 C163.316124,13.4268947 163.494701,14.2871407 163.494701,15.2040324 C163.494701,16.0277948 163.344926,16.7963516 163.047777,17.5058626 C162.748707,18.2177738 162.336346,18.870159 161.809253,19.4649385 C161.602832,19.6953615 161.624914,19.9113831 161.8779,20.1178038 C162.840396,20.8287549 163.57967,21.6246745 164.095722,22.5070027 C164.611293,23.389811 164.868119,24.3926313 164.868119,25.5149835 C164.868119,26.4553975 164.691461,27.3194839 164.335746,28.1106031 C163.98099,28.900282 163.499982,29.5877108 162.892721,30.1714491 C162.2845,30.7571077 161.574029,31.2155536 160.761308,31.5463066 C159.947147,31.87994 159.0821,32.0455566 158.166169,32.0455566 L150.947687,32.0455566 Z" id="Fill-5"></path>
                        <path d="M172.945407,32.0457006 C172.623774,32.0457006 172.372229,31.9549715 172.188851,31.7706331 C172.005473,31.5867747 171.913783,31.3357096 171.913783,31.0150375 L171.913783,9.70330633 C171.913783,9.38311431 172.005473,9.13012901 172.188851,8.94627063 C172.372229,8.76481248 172.623774,8.67216322 172.945407,8.67216322 L174.147927,8.67216322 C174.469559,8.67216322 174.720624,8.76481248 174.904962,8.94627063 C175.087861,9.13012901 175.18003,9.38311431 175.18003,9.70330633 L175.18003,31.0150375 C175.18003,31.3357096 175.087861,31.5867747 174.904962,31.7706331 C174.720624,31.9549715 174.469559,32.0457006 174.147927,32.0457006 L172.945407,32.0457006 Z" id="Fill-7"></path>
                        <path d="M183.426775,32.0457006 C183.105623,32.0457006 182.855038,31.9549715 182.670699,31.7706331 C182.488281,31.5867747 182.396592,31.3357096 182.396592,31.0150375 L182.396592,30.2239184 C182.396592,29.9483708 182.436436,29.6915452 182.517084,29.4510411 C182.596772,29.210057 182.750867,28.929709 182.98033,28.6080768 L194.186571,12.2120372 C194.255218,12.0982658 194.260018,11.9945755 194.202892,11.9043264 C194.145767,11.8121572 194.037276,11.7660726 193.87694,11.7660726 L184.458398,11.7660726 C184.137726,11.7660726 183.886181,11.6743834 183.701842,11.4914851 C183.518464,11.3081068 183.426775,11.0560816 183.426775,10.7344494 L183.426775,9.70330633 C183.426775,9.38311431 183.518464,9.13012901 183.701842,8.94627063 C183.886181,8.76481248 184.137726,8.67216322 184.458398,8.67216322 L197.829175,8.67216322 C198.149847,8.67216322 198.402352,8.76481248 198.586211,8.94627063 C198.769589,9.13012901 198.860318,9.38311431 198.860318,9.70330633 L198.860318,10.4593819 C198.860318,10.7344494 198.797432,11.009517 198.672619,11.2850645 C198.545407,11.559652 198.390351,11.8347195 198.208413,12.109787 L187.071299,28.4021362 C186.957048,28.5624722 186.927765,28.6954455 186.985371,28.7972157 C187.042496,28.899946 187.174029,28.9517912 187.38093,28.9517912 L198.173369,28.9517912 C198.494521,28.9517912 198.745587,29.0444404 198.929445,29.2263786 C199.113303,29.410237 199.204032,29.6622622 199.204032,29.9829343 L199.204032,31.0150375 C199.204032,31.3357096 199.113303,31.5867747 198.929445,31.7706331 C198.745587,31.9549715 198.494521,32.0457006 198.173369,32.0457006 L183.426775,32.0457006 Z" id="Fill-9"></path>
                        <path d="M143.479676,30.9515272 L136.604908,9.46889889 C136.489697,9.10118212 136.336082,8.85683768 136.140702,8.72914491 C135.946763,8.60289229 135.688497,8.53952595 135.367825,8.53952595 L132.961344,8.53952595 C132.640192,8.53952595 132.383846,8.60289229 132.188467,8.72914491 C132.030051,8.83187519 131.899958,9.01765377 131.794827,9.27735974 C131.747303,9.37288929 131.703138,9.47753975 131.664254,9.599952 L124.789487,31.0835404 C124.606589,31.7248845 124.846613,32.0455566 125.511479,32.0455566 L126.469175,32.0455566 L127.196928,32.0455566 C127.348623,32.0455566 127.486877,32.0277948 127.610729,31.9941914 C127.625131,31.9893909 127.639532,31.9826703 127.652493,31.9773897 C127.703858,31.9553075 127.757144,31.940426 127.806109,31.9130633 L127.862754,31.8809001 L127.976526,31.8141734 C128.156544,31.6773597 128.288077,31.4819802 128.365365,31.220354 L129.665815,26.9047225 L129.798308,26.4510771 L130.198668,25.0728593 L133.82063,12.9055626 C133.828791,12.8781998 133.839352,12.8565977 133.847993,12.8321152 C133.91856,12.6324152 134.02225,12.5287249 134.163864,12.5287249 C134.325641,12.5287249 134.438932,12.6540174 134.508539,12.9055626 L137.22273,21.97991 C137.240972,22.0370357 137.241932,22.0773597 137.252493,22.1287249 L138.603348,26.7736694 L139.905239,31.0888209 C140.065575,31.6384758 140.454413,31.9130633 141.073195,31.9130633 L142.204668,31.9130633 L142.756724,31.9130633 C143.42255,31.9130633 143.664494,31.5933513 143.479676,30.9515272" id="Fill-11"></path>
                        <path d="M103.556916,30.9515272 L96.6826283,9.46889889 C96.5678968,9.10118212 96.4138014,8.85683768 96.2189019,8.72914491 C96.0244824,8.60289229 95.7662166,8.53952595 95.4460246,8.53952595 L93.039544,8.53952595 C92.7179118,8.53952595 92.4615662,8.60289229 92.2661866,8.72914491 C92.1077708,8.83187519 91.9771977,9.01765377 91.8725473,9.27735974 C91.8255026,9.37288929 91.780378,9.47753975 91.7424542,9.599952 L84.8672067,31.0835404 C84.6843084,31.7248845 84.9248125,32.0455566 85.589679,32.0455566 L86.5464146,32.0455566 L87.2741674,32.0455566 C87.4258626,32.0455566 87.5645965,32.0277948 87.6894089,31.9941914 C87.7038104,31.9893909 87.7172517,31.9826703 87.730213,31.9773897 C87.7820582,31.9553075 87.8343834,31.940426 87.8843084,31.9130633 L87.9409541,31.8809001 L88.0542454,31.8141734 C88.2342634,31.6773597 88.3657966,31.4819802 88.4426043,31.220354 L89.7435344,26.9047225 L89.8760276,26.4510771 L90.2763876,25.0728593 L93.8988299,12.9055626 C93.9060306,12.8781998 93.9175518,12.8565977 93.9261926,12.8321152 C93.9957996,12.6324152 94.09997,12.5287249 94.2425443,12.5287249 C94.4033603,12.5287249 94.5166517,12.6540174 94.5862586,12.9055626 L99.9829583,31.0888209 C100.143294,31.6384758 100.532613,31.9130633 101.150435,31.9130633 L102.281908,31.9130633 L102.835404,31.9130633 C103.50075,31.9130633 103.741254,31.5933513 103.556916,30.9515272" id="Fill-13"></path>
                        <path d="M23.4329673,17.1435704 C22.7152955,18.459862 21.5420582,18.459862 20.8243864,17.1435704 L12.8018242,2.41665767 C12.0846325,1.09988599 12.7245365,0.0226582658 14.2237264,0.0226582658 L30.0369877,0.0226582658 C31.5361776,0.0226582658 32.1756016,1.09988599 31.4584098,2.41617762 L23.4329673,17.1435704 Z" id="Fill-15"></path>
                        <path d="M20.8262106,23.7616082 C21.5434023,22.4453165 22.7166397,22.4453165 23.4343114,23.7616082 L31.4583138,38.4894809 C32.1759856,39.8057726 31.5360816,40.8830003 30.0368917,40.8830003 L14.2269907,40.8830003 C12.7278008,40.8830003 12.0878968,39.8057726 12.8050885,38.4890009 L20.8262106,23.7616082 Z" id="Fill-17"></path>
                        <path d="M35.8964056,38.4893369 C35.1792139,39.8056286 34.0054965,39.8056286 33.2878248,38.4893369 L25.2652625,23.7614641 C24.5475908,22.4451725 25.1874947,21.3679448 26.6866847,21.3679448 L42.4985059,21.3679448 C43.9976958,21.3679448 44.6375998,22.4451725 43.920408,23.7614641 L35.8964056,38.4893369 Z" id="Fill-19"></path>
                        <path d="M10.9690489,38.4893369 C10.2518572,39.8056286 9.07813981,39.8056286 8.36094809,38.4893369 L0.337905791,23.7614641 C-0.379285929,22.4451725 0.260618062,21.3679448 1.75980798,21.3679448 L17.5721092,21.3679448 C19.0712991,21.3679448 19.7112031,22.4451725 18.9940114,23.7614641 L10.9690489,38.4893369 Z" id="Fill-21"></path>
                        <path d="M46.0706871,17.1356016 C45.3534953,18.4518932 44.179778,18.4518932 43.4621062,17.1356016 L35.4390639,2.40724872 C34.7213921,1.0909571 35.3608161,0.0137293729 36.860006,0.0137293729 L52.6737474,0.0137293729 C54.1729373,0.0137293729 54.8128413,1.0909571 54.0956496,2.40724872 L46.0706871,17.1356016 Z" id="Fill-23"></path>
                        <path d="M8.36090009,2.41656166 C9.07809181,1.09978998 10.2518092,1.09978998 10.9690009,2.41656166 L18.9930033,17.1434743 C19.710195,18.459766 19.0707711,19.5374737 17.5715812,19.5374737 L1.76024002,19.5374737 C0.260570057,19.5374737 -0.379333933,18.459766 0.338337834,17.1434743 L8.36090009,2.41656166 Z" id="Fill-25"></path>
                        <path d="M159.466571,43.4871647 C159.466571,41.9889349 159.546739,41.44024 159.707555,40.9184278 C160.16216,39.5138074 161.285953,38.7918152 162.824506,38.7918152 C164.416826,38.7918152 165.393243,39.5944554 165.848329,40.5977558 C165.888173,40.6779238 165.875212,40.7446505 165.808005,40.7844944 L165.005365,41.1728533 C164.925197,41.2131773 164.85799,41.1858146 164.817666,41.1056466 C164.376502,40.290045 163.787963,39.9021662 162.824506,39.9021662 C161.794323,39.9021662 161.138578,40.3831743 160.85727,41.2530213 C160.737258,41.5876148 160.671011,42.0959856 160.671011,43.4871647 C160.671011,44.8783438 160.737258,45.3867147 160.85727,45.7217882 C161.138578,46.5911551 161.794323,47.0726433 162.824506,47.0726433 C163.747639,47.0726433 164.496994,46.6175578 164.777822,45.7616322 C164.871431,45.4539214 164.952079,45.0127573 164.952079,44.330129 C164.952079,44.2768437 164.925197,44.2494809 164.871431,44.2494809 L163.105335,44.2494809 C163.025167,44.2494809 162.971881,44.1961956 162.971881,44.1165077 L162.971881,43.33979 C162.971881,43.259622 163.025167,43.2063366 163.105335,43.2063366 L166.008185,43.2063366 C166.088833,43.2063366 166.142118,43.259622 166.142118,43.33979 L166.142118,44.0224182 C166.142118,44.8384998 166.048509,45.5878548 165.915536,46.0290189 C165.473891,47.4072367 164.336178,48.1829943 162.824506,48.1829943 C161.285953,48.1829943 160.16216,47.4605221 159.707555,46.0559016 C159.546739,45.5345695 159.466571,44.9858746 159.466571,43.4871647" id="Fill-27"></path>
                        <path d="M173.337798,48.0359076 C173.244668,48.0359076 173.204344,47.9955836 173.16402,47.9024542 L171.344638,44.1830423 L169.337558,44.1830423 C169.284272,44.1830423 169.25739,44.2094449 169.25739,44.2632103 L169.25739,47.9024542 C169.25739,47.9826223 169.203624,48.0359076 169.123456,48.0359076 L168.200804,48.0359076 C168.120636,48.0359076 168.066871,47.9826223 168.066871,47.9024542 L168.066871,39.0719712 C168.066871,38.9922832 168.120636,38.9389979 168.200804,38.9389979 L171.491533,38.9389979 C173.190423,38.9389979 174.341098,39.9821422 174.341098,41.5610201 C174.341098,42.7913831 173.645509,43.6876328 172.548119,44.0356676 L174.487993,47.8755716 C174.541758,47.9557396 174.501914,48.0359076 174.407825,48.0359076 L173.337798,48.0359076 Z M173.150099,41.5610201 C173.150099,40.6110051 172.521236,40.0488689 171.465131,40.0488689 L169.337558,40.0488689 C169.284272,40.0488689 169.25739,40.0757516 169.25739,40.1290369 L169.25739,42.9920432 C169.25739,43.0453285 169.284272,43.0726913 169.337558,43.0726913 L171.465131,43.0726913 C172.521236,43.0726913 173.150099,42.5105551 173.150099,41.5610201 Z" id="Fill-29"></path>
                        <path d="M176.212469,46.0557096 C176.038692,45.5343774 175.971485,44.9856826 175.971485,43.4869727 C175.971485,41.9887429 176.038692,41.4405281 176.212469,40.9187159 C176.680516,39.5140954 177.777906,38.7911431 179.302538,38.7911431 C180.841572,38.7911431 181.938482,39.5140954 182.406529,40.9187159 C182.580786,41.4405281 182.647033,41.9887429 182.647033,43.4869727 C182.647033,44.9856826 182.580786,45.5343774 182.406529,46.0557096 C181.938482,47.4608101 180.841572,48.1832823 179.302538,48.1832823 C177.777906,48.1832823 176.680516,47.4608101 176.212469,46.0557096 M181.242892,45.7220762 C181.349463,45.3865227 181.443072,44.7984638 181.443072,43.4869727 C181.443072,42.1759616 181.349463,41.5874227 181.242892,41.2528293 C180.962064,40.3834623 180.31976,39.9024542 179.302538,39.9024542 C178.299238,39.9024542 177.657414,40.3834623 177.376106,41.2528293 C177.269535,41.5874227 177.175926,42.1759616 177.175926,43.4869727 C177.175926,44.7984638 177.269535,45.3865227 177.376106,45.7220762 C177.657414,46.5914431 178.299238,47.0724512 179.302538,47.0724512 C180.31976,47.0724512 180.962064,46.5914431 181.242892,45.7220762" id="Fill-31"></path>
                        <path d="M184.505011,44.8654305 L184.505011,39.0722112 C184.505011,38.9925233 184.558296,38.9382778 184.638464,38.9382778 L185.562076,38.9382778 C185.641764,38.9382778 185.69505,38.9925233 185.69505,39.0722112 L185.69505,44.8519892 C185.69505,46.3233363 186.511611,47.0726913 187.729013,47.0726913 C188.933453,47.0726913 189.749535,46.3233363 189.749535,44.8519892 L189.749535,39.0722112 C189.749535,38.9925233 189.80282,38.9382778 189.882508,38.9382778 L190.805641,38.9382778 C190.886289,38.9382778 190.939574,38.9925233 190.939574,39.0722112 L190.939574,44.8654305 C190.939574,47.0054845 189.722172,48.1830423 187.729013,48.1830423 C185.721932,48.1830423 184.505011,47.0054845 184.505011,44.8654305" id="Fill-33"></path>
                        <path d="M193.252781,48.0359076 C193.172613,48.0359076 193.118848,47.9826223 193.118848,47.9024542 L193.118848,39.0719712 C193.118848,38.9922832 193.172613,38.9389979 193.252781,38.9389979 L196.490225,38.9389979 C198.24336,38.9389979 199.380114,40.0085449 199.380114,41.6541494 C199.380114,43.300234 198.24336,44.369781 196.490225,44.369781 L194.389535,44.369781 C194.33625,44.369781 194.309367,44.3971437 194.309367,44.450429 L194.309367,47.9024542 C194.309367,47.9826223 194.256082,48.0359076 194.175914,48.0359076 L193.252781,48.0359076 Z M198.203036,41.6541494 C198.203036,40.6647705 197.547291,40.0488689 196.423018,40.0488689 L194.389535,40.0488689 C194.33625,40.0488689 194.309367,40.0757516 194.309367,40.1290369 L194.309367,43.179742 C194.309367,43.2330273 194.33625,43.26039 194.389535,43.26039 L196.423018,43.26039 C197.547291,43.26039 198.203036,42.6444884 198.203036,41.6541494 Z" id="Fill-35"></path>
                    </g>
                </g>
                <g id="Bitrock" transform="translate(250.000000, 0.000000)">
                    <circle id="Circle" fill-opacity="0.5" fill="#8C8F90" cx="125" cy="125" r="125"></circle>
                    <g id="Logo" transform="translate(50.000000, 108.000000)" fill="#FFFFFF">
                        <path d="M50.8695119,26.1504958 L52.4605345,26.1504958 C53.8359215,26.1504958 54.8431672,25.8674739 55.4812077,25.3010755 C56.1192482,24.7353865 56.4380912,23.8348946 56.4380912,22.5988906 C56.4380912,21.3632412 56.1192482,20.4623947 55.4812077,19.896351 C54.8431672,19.3303073 53.8359215,19.0472854 52.4605345,19.0472854 L50.8695119,19.0472854 L50.8695119,26.1504958 Z M50.8695119,16.9107895 L52.4605345,16.9107895 C55.1123572,16.9107895 56.4380912,15.7269211 56.4380912,13.3588297 C56.4380912,12.966926 56.3845369,12.6207739 56.276719,12.3210828 C56.1689012,12.0217464 56.0405128,11.772063 55.8911993,11.5720325 C55.7422404,11.3723567 55.5163195,11.2042459 55.2137911,11.066991 C54.9112627,10.9304453 54.6360434,10.8251101 54.3870693,10.7509853 C54.1388045,10.6772152 53.7844952,10.6229516 53.324496,10.5899679 C52.8644968,10.5566295 52.481105,10.5364136 52.17503,10.5289657 C51.867891,10.5215177 51.4330729,10.5176164 50.8695119,10.5176164 L50.8695119,16.9107895 Z M47.9169341,28.1100143 L47.9169341,8.22116711 L52.6903568,8.22116711 C53.7178184,8.22116711 54.6378168,8.31728105 55.450352,8.50950893 C56.2621778,8.70209148 56.9729245,8.9943346 57.5815279,9.38659298 C58.1908406,9.77885135 58.6589971,10.2966608 58.9863519,10.9403759 C59.3137068,11.5840911 59.4775616,12.3349147 59.4775616,13.1932016 C59.4775616,14.4362989 59.1831904,15.3818331 58.5951575,16.0290948 C58.0064153,16.6767113 57.0988302,17.151961 55.8727568,17.4551987 C57.1981361,17.8474571 58.1929686,18.4227221 58.8558356,19.1809937 C59.5187026,19.9399747 59.8503134,21.0216998 59.8503134,22.4275879 C59.8503134,24.1814013 59.2803684,25.5670735 58.140833,26.5838952 C57.0020069,27.6014262 55.450352,28.1100143 53.4858681,28.1100143 L47.9169341,28.1100143 Z" id="Fill-1"></path>
                        <polygon id="Fill-3" points="64.976272 28.1100143 68.1583174 28.1100143 68.1583174 8.22116711 64.976272 8.22116711"></polygon>
                        <polygon id="Fill-5" points="76.8277239 28.1100143 76.8277239 10.7516947 72.8498126 10.7516947 72.8498126 8.22116711 83.9873259 8.22116711 83.9873259 10.7516947 80.0101239 10.7516947 80.0101239 28.1100143"></polygon>
                        <path d="M90.5652789,17.1838808 L94.5048865,17.1838808 C95.062773,17.1838808 95.5348307,17.0845749 95.9210598,16.884899 C96.3072889,16.6859325 96.5966947,16.4022014 96.7903412,16.0344148 C96.9832785,15.6666282 97.1184054,15.2835911 97.1957222,14.8853035 C97.2730389,14.4866611 97.3113426,14.0302086 97.3113426,13.5170098 C97.3113426,13.095669 97.2875802,12.7161785 97.2404099,12.3788931 C97.1932395,12.0416076 97.1070562,11.7121248 96.9832785,11.3904445 C96.8587914,11.0687643 96.693518,10.7981557 96.4871035,10.580392 C96.2813984,10.3615643 96.0111445,10.1874243 95.6763417,10.0569079 C95.3418935,9.92639157 94.9510538,9.86148806 94.5048865,9.86148806 L90.5652789,9.86148806 L90.5652789,17.1838808 Z M88.5968938,28.3323886 L88.5968938,8.5492313 L94.5066598,8.5492313 C95.2532275,8.5492313 95.9097106,8.64108927 96.4757543,8.82515988 C97.0425073,9.00887583 97.5000239,9.25252999 97.8468853,9.55470371 C98.1948106,9.85794142 98.4757045,10.2331759 98.6906309,10.6814712 C98.9052026,11.1301211 99.0530975,11.5933123 99.1343156,12.072818 C99.2162429,12.5516144 99.2570293,13.0825464 99.2570293,13.66455 C99.2570293,16.186211 98.2274397,17.7836176 96.1671966,18.4581885 L99.5914774,28.3323886 L97.5064078,28.3323886 L94.2743549,18.6763069 L90.5539297,18.6763069 L90.5539297,28.3323886 L88.5968938,28.3323886 Z" id="Fill-6"></path>
                        <path d="M114.358267,22.8446727 L114.358267,13.7752052 C114.358267,10.9474692 113.126165,9.53342387 110.663023,9.53342387 C108.199527,9.53342387 106.968488,10.9474692 106.968488,13.7752052 L106.968488,22.8446727 C106.968488,25.6802113 108.199527,27.0978033 110.663023,27.0978033 C113.126165,27.0978033 114.358267,25.6802113 114.358267,22.8446727 M105.000103,22.5439177 L105.000103,14.2561296 C105.000103,13.5585055 105.057914,12.9186916 105.173889,12.3363334 C105.289509,11.7543298 105.484929,11.2038913 105.759439,10.6871458 C106.034303,10.1693364 106.381874,9.73239037 106.802506,9.37630772 C107.222428,9.01987041 107.759389,8.73862187 108.411971,8.5314981 C109.063843,8.32472899 109.810766,8.22116711 110.651674,8.22116711 C111.492937,8.22116711 112.239859,8.32472899 112.892086,8.5314981 C113.543959,8.73862187 114.080565,9.01987041 114.501197,9.37630772 C114.921474,9.73239037 115.269399,10.1693364 115.543909,10.6871458 C115.818419,11.2038913 116.013839,11.7543298 116.129459,12.3363334 C116.245789,12.9186916 116.303954,13.5585055 116.303954,14.2561296 L116.303954,22.5439177 C116.303954,26.5750286 114.41927,28.590584 110.651674,28.590584 C106.883724,28.590584 105.000103,26.5750286 105.000103,22.5439177" id="Fill-7"></path>
                        <path d="M122.059441,22.5442723 L122.059441,14.2564842 C122.059441,13.5514122 122.111222,12.9112437 122.21372,12.336688 C122.316927,11.7617777 122.49887,11.2141765 122.761321,10.6928205 C123.022709,10.1714644 123.359639,9.73274503 123.771404,9.37666238 C124.183524,9.01987041 124.709491,8.73862187 125.348595,8.5314981 C125.988054,8.32472899 126.728593,8.22116711 127.569501,8.22116711 C131.036696,8.22116711 132.771003,10.2328213 132.771003,14.2564842 L132.771003,15.0608621 L130.903697,15.0608621 L130.903697,13.8652898 C130.903697,13.2290226 130.850497,12.6658162 130.743034,12.1756706 C130.635571,11.685525 130.457884,11.2425496 130.20891,10.8478086 C129.959582,10.4534223 129.614139,10.1505392 129.172582,9.93951414 C128.730316,9.72919839 128.195838,9.62350852 127.569501,9.62350852 C127.003103,9.62350852 126.50941,9.69479598 126.089133,9.83666158 C125.668502,9.97781785 125.327315,10.1714644 125.065928,10.4168919 C124.803476,10.6623193 124.593515,10.9683944 124.434626,11.3361809 C124.275736,11.7043221 124.166145,12.0894872 124.106207,12.4913215 C124.046269,12.8942198 124.016477,13.352091 124.016477,13.8652898 L124.016477,22.935112 C124.016477,23.5862751 124.067549,24.1516095 124.170401,24.6304059 C124.273608,25.109557 124.45165,25.5500496 124.70488,25.9525933 C124.95811,26.3547822 125.324833,26.6612119 125.805757,26.872237 C126.286327,27.0829074 126.87436,27.1882426 127.569501,27.1882426 C128.195838,27.1882426 128.730316,27.0829074 129.172582,26.872237 C129.614139,26.6612119 129.959582,26.3565556 130.20891,25.9582679 C130.457884,25.5599802 130.635571,25.1152316 130.743034,24.6247313 C130.850497,24.1345857 130.903697,23.5713792 130.903697,22.935112 L130.903697,21.5785223 L132.771003,21.5785223 L132.771003,22.5442723 C132.771003,23.2415417 132.723123,23.8778089 132.629137,24.4523646 C132.534797,25.0272749 132.365267,25.5770041 132.120549,26.1019068 C131.875831,26.6271642 131.56018,27.0673022 131.174306,27.4240942 C130.788077,27.7801768 130.290483,28.063908 129.680461,28.2745784 C129.071503,28.4852488 128.36785,28.5909387 127.569501,28.5909387 C126.710859,28.5909387 125.957908,28.4852488 125.310291,28.2745784 C124.661966,28.063908 124.134226,27.7801768 123.726717,27.4240942 C123.318853,27.0673022 122.987952,26.6271642 122.735076,26.1019068 C122.481846,25.5770041 122.305933,25.0294029 122.207336,24.4583939 C122.108739,23.8870302 122.059441,23.2493443 122.059441,22.5442723" id="Fill-8"></path>
                        <polygon id="Fill-9" points="138.790715 28.332034 138.790715 8.5492313 140.747751 8.5492313 140.747751 18.9522354 146.657162 8.5492313 148.678392 8.5492313 144.09507 16.7104044 149.721104 28.332034 147.648448 28.332034 142.910492 17.8829235 140.747751 21.3547293 140.747751 28.332034"></polygon>
                        <path d="M32.1624051,13.3366466 L31.0842265,10.0467834 C27.7805315,-0.0317031934 19.5874386,-2.68423517 12.7846287,4.11963881 L11.501809,5.40245846" id="Fill-10"></path>
                        <polyline id="Fill-11" points="33.0061507 16.2113921 32.3638542 14.2525829 10.7499214 5.92471777 9.53342387 7.14121526"></polyline>
                        <path d="M8.31199651,8.22116711 L3.79109464,12.7417143 C-3.01207001,19.5452336 -0.359538034,27.7376171 9.71788457,31.0416669 L34.698288,21.3338041 L33.6264934,18.0623835" id="Fill-12"></path>
                        <path d="M11.501809,31.5321672 L23.1649343,35.354381 C33.2388103,38.658076 38.7297182,33.1678775 35.4249591,23.0901002 L35.2827388,22.6559915" id="Fill-13"></path>
                    </g>
                </g>
                <g id="Radicalbit" transform="translate(0.000000, 350.000000)">
                    <circle id="Circle" fill-opacity="0.5" fill="#3F3F3F" cx="125" cy="125" r="125"></circle>
                    <g id="Logo" transform="translate(50.000000, 110.000000)" fill="#FFFFFF">
                        <path d="M1.31021563,12.4193127 C1.31021563,12.1075876 1.32638814,11.799097 1.35347709,11.4942453 C1.32638814,11.1889892 1.31021563,10.880903 1.31021563,10.5691779 C1.31021563,7.23278976 2.8983558,4.26877358 5.35859838,2.38750674 C2.16574124,4.13575472 -0.000161725068,7.52632075 -0.000161725068,11.4230863 C-0.000161725068,15.0610916 1.88878706,18.2563747 4.73757412,20.0871024 C2.63433962,18.2021968 1.31021563,15.4658086 1.31021563,12.4193127" id="Fill-1"></path>
                        <path d="M16.5416038,19.6045553 C14.8087197,20.9294879 12.644434,21.7183019 10.294973,21.7183019 C8.24712938,21.7183019 6.34079515,21.1178976 4.73769542,20.0869003 C6.5595283,21.7199191 8.9659973,22.714124 11.6053504,22.714124 C17.2907951,22.714124 21.8999596,18.1053639 21.8999596,12.4195148 C21.8999596,12.1073854 21.8837871,11.7988949 21.8566981,11.4940431 C21.5445687,14.9974124 19.478531,17.9961995 16.5416038,19.6045553" id="Fill-3"></path>
                        <path d="M16.5416038,19.6045553 C15.0759704,20.4067116 13.3940296,20.8639892 11.6053504,20.8639892 C6.23122642,20.8639892 1.82179245,16.7460647 1.35359838,11.4940431 C1.32650943,11.7988949 1.31033693,12.1073854 1.31033693,12.4195148 C1.31033693,15.4660108 2.63446092,18.2019946 4.73769542,20.0869003 C6.34079515,21.1178976 8.24712938,21.7183019 10.294973,21.7183019 C12.644434,21.7183019 14.8087197,20.9294879 16.5416038,19.6045553" id="Fill-5"></path>
                        <path d="M17.1625067,3.75541779 C19.7666846,5.42967655 21.5670889,8.24369272 21.8565768,11.4943666 C21.8840701,11.1891105 21.9002426,10.8810243 21.9002426,10.5692992 C21.9002426,4.88345013 17.2906739,0.273881402 11.6052291,0.273881402 C9.25536388,0.273881402 7.09107817,1.06269542 5.35859838,2.38762803 C6.82423181,1.58506739 8.50617251,1.12819407 10.2948518,1.12819407 C12.9342049,1.12819407 15.3406739,2.12239892 17.1625067,3.75541779" id="Fill-7"></path>
                        <path d="M17.1625067,3.75541779 C19.2657412,5.64032345 20.5902695,8.37671159 20.5902695,11.4232075 C20.5902695,14.7595957 19.0017251,17.7232075 16.5414825,19.6044744 C19.478814,17.9965229 21.5444474,14.9977358 21.8565768,11.4943666 C21.5670889,8.24369272 19.7666846,5.42967655 17.1625067,3.75541779" id="Fill-9"></path>
                        <path d="M34.5692588,17.6583962 C34.5692588,15.4645957 33.6753235,14.7724124 31.5296361,14.7724124 L30.247965,14.7724124 C30.1286927,14.7724124 30.0696631,14.8209299 30.0696631,14.9159434 L30.0696631,20.4008491 C30.0696631,20.4970755 30.1286927,20.5443801 30.247965,20.5443801 L31.5296361,20.5443801 C33.6158895,20.5443801 34.5692588,19.8764555 34.5692588,17.6583962 Z M35.1656199,29.2015229 C34.9865094,29.2015229 34.8971563,29.153814 34.8381267,29.0345418 L32.3042992,22.261496 C32.0358356,22.2849461 31.7386658,22.2849461 31.4702022,22.2849461 L30.247965,22.2849461 C30.1286927,22.2849461 30.0696631,22.332655 30.0696631,22.4284771 L30.0696631,28.9629784 C30.0696631,29.1061051 29.9503908,29.2015229 29.770876,29.2015229 L27.9534906,29.2015229 C27.7743801,29.2015229 27.6551078,29.1061051 27.6551078,28.9629784 L27.6551078,13.2226819 C27.6551078,13.0795553 27.7743801,12.9845418 27.9534906,12.9845418 L31.5001213,12.9845418 C35.0766712,12.9845418 36.983814,14.2241644 36.983814,17.6583962 C36.983814,19.8291509 36.0890701,21.1403369 34.5098248,21.7840027 L37.3412264,28.9629784 C37.4002561,29.0822507 37.3412264,29.2015229 37.192035,29.2015229 L35.1656199,29.2015229 Z" id="Fill-11"></path>
                        <path d="M48.2211186,23.7397035 L46.4926819,16.6808086 L46.4025202,16.6808086 L44.5560243,23.7397035 L48.2211186,23.7397035 Z M45.2106065,13.2227224 C45.2708491,13.0795957 45.3602022,12.9845822 45.538504,12.9845822 L47.326779,12.9845822 C47.5054852,12.9845822 47.6247574,13.0795957 47.6550809,13.2227224 L51.9165364,28.9630189 C51.9464555,29.1061456 51.8271833,29.2015633 51.6480728,29.2015633 L49.8597978,29.2015633 C49.6515768,29.2015633 49.5622237,29.1061456 49.5323046,28.9630189 L48.637965,25.4095148 L44.1375606,25.4095148 L43.244434,28.9630189 C43.2141105,29.1061456 43.1251617,29.2015633 42.9456469,29.2015633 L41.157372,29.2015633 C40.9794744,29.2015633 40.8602022,29.1061456 40.889717,28.9630189 L45.2106065,13.2227224 Z" id="Fill-13"></path>
                        <path d="M58.7731536,27.4124394 L60.4421563,27.4124394 C61.8139892,27.4124394 62.5878437,26.9830593 63.005903,26.0292857 C63.273558,25.3617655 63.3928302,24.4791509 63.3928302,21.0930323 C63.3928302,17.7061051 63.273558,16.8242992 63.005903,16.1563747 C62.5878437,15.2021968 61.8139892,14.7724124 60.4421563,14.7724124 L58.7731536,14.7724124 C58.6538814,14.7724124 58.5952561,14.8209299 58.5952561,14.9159434 L58.5952561,27.269717 C58.5952561,27.3651348 58.6538814,27.4124394 58.7731536,27.4124394 Z M56.1807008,13.2226819 C56.1807008,13.0795553 56.299973,12.9845418 56.4786792,12.9845418 L60.6807008,12.9845418 C63.2444474,12.9845418 64.7040162,13.8428976 65.3598113,15.5119003 C65.7172237,16.3949191 65.836496,17.4675606 65.836496,21.0930323 C65.836496,24.7172911 65.7172237,25.7911456 65.3598113,26.6729515 C64.7040162,28.3427628 63.2444474,29.2015229 60.6807008,29.2015229 L56.4786792,29.2015229 C56.299973,29.2015229 56.1807008,29.1061051 56.1807008,28.9629784 L56.1807008,13.2226819 Z" id="Fill-15"></path>
                        <path d="M71.0249191,13.2228032 C71.0249191,13.0796765 71.1441914,12.9846631 71.3228976,12.9846631 L73.1410916,12.9846631 C73.3193935,12.9846631 73.4386658,13.0796765 73.4386658,13.2228032 L73.4386658,28.9630997 C73.4386658,29.1062264 73.3193935,29.2016442 73.1410916,29.2016442 L71.3228976,29.2016442 C71.1441914,29.2016442 71.0249191,29.1062264 71.0249191,28.9630997 L71.0249191,13.2228032 Z" id="Fill-17"></path>
                        <path d="M78.6263208,21.0931132 C78.6263208,16.4896092 78.7156739,15.8220889 78.9841375,15.1545687 C79.6096092,13.6278841 81.0400674,12.7695283 83.3345418,12.7695283 C85.9872372,12.7695283 87.5968059,13.9141375 87.8644609,16.395 C87.8943801,16.5615768 87.8054313,16.6565903 87.6259164,16.6808491 L85.9278032,16.943248 C85.7486927,16.9666981 85.5995013,16.8955391 85.5995013,16.7524124 C85.4507143,15.2976954 84.765,14.5816577 83.3648652,14.5816577 C82.2914151,14.5816577 81.6360243,14.9398787 81.3380458,15.7028167 C81.1593396,16.1564555 81.0695822,16.6088814 81.0695822,21.0931132 C81.0695822,25.5761321 81.1593396,26.0293666 81.3380458,26.4830054 C81.6360243,27.2459434 82.2914151,27.6033558 83.3648652,27.6033558 C84.765,27.6033558 85.4507143,26.8881267 85.5995013,25.4334097 C85.5995013,25.290283 85.7486927,25.2183154 85.9278032,25.2425741 L87.6259164,25.504973 C87.8054313,25.5288275 87.8943801,25.6242453 87.8644609,25.7912264 C87.5968059,28.2712803 85.9872372,29.4154852 83.3345418,29.4154852 C81.0400674,29.4154852 79.6096092,28.557938 78.9841375,27.0316577 C78.7156739,26.3629245 78.6263208,25.6954043 78.6263208,21.0931132" id="Fill-19"></path>
                        <path d="M98.2082345,23.7397035 L96.4797978,16.6808086 L96.3900404,16.6808086 L94.5431402,23.7397035 L98.2082345,23.7397035 Z M95.1981267,13.2227224 C95.257965,13.0795957 95.3473181,12.9845822 95.5260243,12.9845822 L97.3138949,12.9845822 C97.4926011,12.9845822 97.6118733,13.0795957 97.6426011,13.2227224 L101.903652,28.9630189 C101.933976,29.1061456 101.814704,29.2015633 101.635189,29.2015633 L99.8469137,29.2015633 C99.6386927,29.2015633 99.5493396,29.1061456 99.5194205,28.9630189 L98.6254852,25.4095148 L94.1246765,25.4095148 L93.2315499,28.9630189 C93.2012264,29.1061456 93.1122776,29.2015633 92.9327628,29.2015633 L91.1444879,29.2015633 C90.9665903,29.2015633 90.8473181,29.1061456 90.8768329,28.9630189 L95.1981267,13.2227224 Z" id="Fill-21"></path>
                        <path d="M106.167736,13.2228032 C106.167736,13.0796765 106.287008,12.9846631 106.465714,12.9846631 L108.2831,12.9846631 C108.463019,12.9846631 108.582291,13.0796765 108.582291,13.2228032 L108.582291,27.2698383 C108.582291,27.3652561 108.640916,27.4125606 108.760189,27.4125606 L114.06558,27.4125606 C114.243881,27.4125606 114.363154,27.5083827 114.363154,27.6511051 L114.363154,28.9630997 C114.363154,29.1062264 114.243881,29.2016442 114.06558,29.2016442 L106.465714,29.2016442 C106.287008,29.2016442 106.167736,29.1062264 106.167736,28.9630997 L106.167736,13.2228032 Z" id="Fill-23"></path>
                        <path d="M121.368962,27.4124394 L122.709663,27.4124394 C124.915189,27.4124394 125.719771,26.7687736 125.719771,24.5272642 C125.719771,22.3565094 124.855755,21.6889892 122.79942,21.6889892 L121.368962,21.6889892 C121.250094,21.6889892 121.189852,21.7366981 121.189852,21.8321159 L121.189852,27.269717 C121.189852,27.3651348 121.250094,27.4124394 121.368962,27.4124394 Z M122.79942,19.9957278 C124.706968,19.9957278 125.511146,19.423221 125.511146,17.3959973 C125.511146,15.3210647 124.796321,14.7724124 122.739582,14.7724124 L121.368962,14.7724124 C121.250094,14.7724124 121.189852,14.8209299 121.189852,14.9159434 L121.189852,19.8526011 C121.189852,19.9484232 121.250094,19.9957278 121.368962,19.9957278 L122.79942,19.9957278 Z M118.776105,13.2226819 C118.776105,13.0795553 118.895377,12.9845418 119.074084,12.9845418 L122.918693,12.9845418 C126.434596,12.9845418 127.954811,14.2007143 127.954811,17.1578571 C127.954811,19.1846765 127.090795,20.1869677 125.600499,20.7113612 L125.600499,20.7586658 C127.120714,21.1403369 128.164245,22.2372372 128.164245,24.5507143 C128.164245,28.032655 126.405081,29.2015229 122.62031,29.2015229 L119.074084,29.2015229 C118.895377,29.2015229 118.776105,29.1061051 118.776105,28.9629784 L118.776105,13.2226819 Z" id="Fill-25"></path>
                        <path d="M132.934528,13.2228032 C132.934528,13.0796765 133.053801,12.9846631 133.232507,12.9846631 L135.050701,12.9846631 C135.229003,12.9846631 135.348275,13.0796765 135.348275,13.2228032 L135.348275,28.9630997 C135.348275,29.1062264 135.229003,29.2016442 135.050701,29.2016442 L133.232507,29.2016442 C133.053801,29.2016442 132.934528,29.1062264 132.934528,28.9630997 L132.934528,13.2228032 Z" id="Fill-27"></path>
                        <path d="M143.664582,29.201442 C143.48628,29.201442 143.367008,29.1064286 143.367008,28.9628976 L143.367008,14.9158625 C143.367008,14.8212534 143.30717,14.7723315 143.187898,14.7723315 L139.849892,14.7723315 C139.671186,14.7723315 139.551914,14.6777224 139.551914,14.5341914 L139.551914,13.2226011 C139.551914,13.0794744 139.671186,12.9848652 139.849892,12.9848652 L149.297062,12.9848652 C149.476577,12.9848652 149.595849,13.0794744 149.595849,13.2226011 L149.595849,14.5341914 C149.595849,14.6777224 149.476577,14.7723315 149.297062,14.7723315 L145.959057,14.7723315 C145.839784,14.7723315 145.780755,14.8212534 145.780755,14.9158625 L145.780755,28.9628976 C145.780755,29.1064286 145.661482,29.201442 145.482372,29.201442 L143.664582,29.201442 Z" id="Fill-29"></path>
                    </g>
                </g>
            </g>
        </g>
    </g>
</svg>