<?xml version="1.0" encoding="utf-8"?>
<!-- Generator: Adobe Illustrator 22.1.0, SVG Export Plug-In . SVG Version: 6.00 Build 0)  -->
<svg version="1.1" id="Livello_1" xmlns="http://www.w3.org/2000/svg" xmlns:xlink="http://www.w3.org/1999/xlink" x="0px" y="0px"
	 viewBox="0 0 428.3 110" style="enable-background:new 0 0 428.3 110;" xml:space="preserve">
<style type="text/css">
	.st0{fill:#4B4F54;}
	.st1{fill:#DEDDEB;}
	.st2{fill:#7D858C;}
	.st3{fill:#72B2DF;}
	.st4{fill:#8EC7E8;}
	.st5{fill:#8D8F90;}
</style>
<g id="XMLID_29_">
	<g id="XMLID_30_">
		<g id="XMLID_31_">
			<path id="XMLID_32_" class="st0" d="M6.5,37c0-0.9,0-1.8,0.1-2.6c-0.1-0.9-0.1-1.7-0.1-2.6C6.5,22.3,11,14,18,8.6
				c-9,4.9-15.1,14.5-15.1,25.5c0,10.3,5.3,19.3,13.4,24.5C10.3,53.3,6.5,45.6,6.5,37z"/>
			<path id="XMLID_33_" class="st1" d="M49.6,57.3c-4.9,3.7-11,6-17.6,6c-5.8,0-11.2-1.7-15.7-4.6c5.1,4.6,11.9,7.4,19.4,7.4
				c16.1,0,29.1-13,29.1-29.1c0-0.9,0-1.8-0.1-2.6C63.7,44.3,57.8,52.7,49.6,57.3z"/>
			<path id="XMLID_34_" class="st2" d="M49.6,57.3c-4.1,2.3-8.9,3.6-13.9,3.6c-15.2,0-27.6-11.6-29-26.5c-0.1,0.9-0.1,1.7-0.1,2.6
				c0,8.6,3.7,16.3,9.7,21.7c4.5,2.9,9.9,4.6,15.7,4.6C38.5,63.2,44.7,61,49.6,57.3z"/>
			<path id="XMLID_37_" class="st3" d="M51.3,12.5c7.4,4.7,12.4,12.7,13.3,21.9c0.1-0.9,0.1-1.7,0.1-2.6c0-16.1-13-29.1-29.1-29.1
				c-6.6,0-12.7,2.2-17.6,6c4.1-2.3,8.9-3.6,13.9-3.6C39.4,5.1,46.2,7.9,51.3,12.5z"/>
		</g>
		<path id="XMLID_40_" class="st4" d="M51.3,12.5c5.9,5.3,9.7,13.1,9.7,21.7c0,9.4-4.5,17.8-11.4,23.1c8.3-4.5,14.1-13,15-22.9
			C63.7,25.2,58.7,17.2,51.3,12.5z"/>
	</g>
	<g id="XMLID_56_">
		<path id="XMLID_188_" class="st0" d="M102.2,84.4c-0.5,0-0.8-0.1-0.9-0.5l-7.2-19.1c-0.8,0.1-1.6,0.1-2.4,0.1h-3.5
			c-0.3,0-0.5,0.1-0.5,0.4v18.5c0,0.4-0.3,0.7-0.8,0.7h-5.1c-0.5,0-0.8-0.3-0.8-0.7V39.2c0-0.4,0.3-0.7,0.8-0.7h10
			c10.1,0,15.5,3.5,15.5,13.2c0,6.1-2.5,9.8-7,11.7l8,20.3c0.2,0.3,0,0.7-0.4,0.7H102.2z M100.5,51.8c0-6.2-2.5-8.2-8.6-8.2h-3.6
			c-0.3,0-0.5,0.1-0.5,0.4v15.5c0,0.3,0.2,0.4,0.5,0.4h3.6C97.8,59.9,100.5,58,100.5,51.8z"/>
		<path id="XMLID_191_" class="st0" d="M130.5,39.2c0.2-0.4,0.4-0.7,0.9-0.7h5.1c0.5,0,0.8,0.3,0.9,0.7l12,44.5
			c0.1,0.4-0.3,0.7-0.8,0.7h-5.1c-0.6,0-0.8-0.3-0.9-0.7l-2.5-10h-12.7l-2.5,10c-0.1,0.4-0.3,0.7-0.8,0.7h-5.1
			c-0.5,0-0.8-0.3-0.8-0.7L130.5,39.2z M139,69L134.1,49h-0.3L128.7,69H139z"/>
		<path id="XMLID_194_" class="st0" d="M161.5,39.2c0-0.4,0.3-0.7,0.8-0.7h11.9c7.2,0,11.4,2.4,13.2,7.1c1,2.5,1.3,5.5,1.3,15.8
			c0,10.2-0.3,13.3-1.3,15.8c-1.9,4.7-6,7.1-13.2,7.1h-11.9c-0.5,0-0.8-0.3-0.8-0.7V39.2z M168.8,79.3h4.7c3.9,0,6.1-1.2,7.2-3.9
			c0.8-1.9,1.1-4.4,1.1-13.9c0-9.6-0.3-12.1-1.1-13.9c-1.2-2.7-3.4-3.9-7.2-3.9h-4.7c-0.3,0-0.5,0.1-0.5,0.4v34.9
			C168.3,79.2,168.5,79.3,168.8,79.3z"/>
		<path id="XMLID_197_" class="st0" d="M203.4,39.2c0-0.4,0.3-0.7,0.8-0.7h5.1c0.5,0,0.8,0.3,0.8,0.7v44.5c0,0.4-0.3,0.7-0.8,0.7
			h-5.1c-0.5,0-0.8-0.3-0.8-0.7V39.2z"/>
		<path id="XMLID_199_" class="st0" d="M224.9,61.5c0-13,0.3-14.9,1-16.8c1.8-4.3,5.8-6.7,12.3-6.7c7.5,0,12,3.2,12.8,10.2
			c0.1,0.5-0.2,0.7-0.7,0.8l-4.8,0.7c-0.5,0.1-0.9-0.1-0.9-0.5c-0.4-4.1-2.4-6.1-6.3-6.1c-3,0-4.9,1-5.7,3.2
			c-0.5,1.3-0.8,2.6-0.8,15.2c0,12.7,0.3,13.9,0.8,15.2c0.8,2.2,2.7,3.2,5.7,3.2c4,0,5.9-2,6.3-6.1c0-0.4,0.4-0.6,0.9-0.5l4.8,0.7
			c0.5,0.1,0.8,0.3,0.7,0.8c-0.8,7-5.3,10.2-12.8,10.2c-6.5,0-10.5-2.4-12.3-6.7C225.1,76.4,224.9,74.5,224.9,61.5z"/>
		<path id="XMLID_201_" class="st0" d="M271.7,39.2c0.2-0.4,0.4-0.7,0.9-0.7h5.1c0.5,0,0.8,0.3,0.9,0.7l12,44.5
			c0.1,0.4-0.3,0.7-0.8,0.7h-5.1c-0.6,0-0.8-0.3-0.9-0.7l-2.5-10h-12.7l-2.5,10c-0.1,0.4-0.3,0.7-0.8,0.7h-5.1
			c-0.5,0-0.8-0.3-0.8-0.7L271.7,39.2z M280.2,69L275.3,49h-0.3L269.8,69H280.2z"/>
		<path id="XMLID_204_" class="st0" d="M302.7,39.2c0-0.4,0.3-0.7,0.8-0.7h5.1c0.5,0,0.8,0.3,0.8,0.7v39.7c0,0.3,0.2,0.4,0.5,0.4h15
			c0.5,0,0.8,0.3,0.8,0.7v3.7c0,0.4-0.3,0.7-0.8,0.7h-21.5c-0.5,0-0.8-0.3-0.8-0.7V39.2z"/>
		<path id="XMLID_206_" class="st5" d="M338.3,39.2c0-0.4,0.3-0.7,0.8-0.7H350c9.9,0,14.2,3.4,14.2,11.8c0,5.7-2.4,8.6-6.7,10v0.1
			c4.3,1.1,7.2,4.2,7.2,10.7c0,9.8-5,13.1-15.7,13.1h-10c-0.5,0-0.8-0.3-0.8-0.7V39.2z M349.7,58.4c5.4,0,7.7-1.6,7.7-7.3
			c0-5.9-2-7.4-7.8-7.4h-3.9c-0.3,0-0.5,0.1-0.5,0.4V58c0,0.3,0.2,0.4,0.5,0.4H349.7z M345.6,79.3h3.8c6.2,0,8.5-1.8,8.5-8.1
			c0-6.1-2.4-8-8.2-8h-4c-0.3,0-0.5,0.1-0.5,0.4v15.4C345.1,79.2,345.3,79.3,345.6,79.3z"/>
		<path id="XMLID_210_" class="st5" d="M378.3,39.2c0-0.4,0.3-0.7,0.8-0.7h5.1c0.5,0,0.8,0.3,0.8,0.7v44.5c0,0.4-0.3,0.7-0.8,0.7
			h-5.1c-0.5,0-0.8-0.3-0.8-0.7V39.2z"/>
		<path id="XMLID_212_" class="st5" d="M408.6,84.4c-0.5,0-0.8-0.3-0.8-0.7V44c0-0.3-0.2-0.4-0.5-0.4h-9.4c-0.5,0-0.8-0.3-0.8-0.7
			v-3.7c0-0.4,0.3-0.7,0.8-0.7h26.7c0.5,0,0.8,0.3,0.8,0.7V43c0,0.4-0.3,0.7-0.8,0.7h-9.4c-0.3,0-0.5,0.1-0.5,0.4v39.7
			c0,0.4-0.3,0.7-0.8,0.7H408.6z"/>
	</g>
</g>
</svg>
