<?xml version="1.0" encoding="utf-8"?>
<!-- Generator: Adobe Illustrator 22.1.0, SVG Export Plug-In . SVG Version: 6.00 Build 0)  -->
<svg version="1.1" id="Livello_1" xmlns="http://www.w3.org/2000/svg" xmlns:xlink="http://www.w3.org/1999/xlink" x="0px" y="0px"
	 viewBox="0 0 428.3 110" style="enable-background:new 0 0 428.3 110;" xml:space="preserve">
<style type="text/css">
	.st0{fill:#889097;}
	.st1{fill:#5A8EC7;}
	.st2{fill:#BDCDE8;}
	.st3{fill:#D6DFF0;}
	.st4{fill:#A6BDE0;}
	.st5{fill:#0071B6;}
	.st6{fill:#85A7D4;}
</style>
<g id="XMLID_182_">
	<g id="XMLID_189_">
		<path id="XMLID_224_" class="st0" d="M141.4,72.8c-0.7,0-1.2-0.2-1.6-0.6c-0.4-0.4-0.6-0.9-0.6-1.6V26.2c0-0.7,0.2-1.2,0.6-1.6
			c0.4-0.4,0.9-0.6,1.6-0.6h12.5c2.6,0,5,0.4,7.2,1.3c2.2,0.9,4,2.1,5.5,3.6c1.5,1.5,2.7,3.3,3.5,5.4c0.8,2.1,1.3,4.4,1.3,6.8v14.3
			c0,2.4-0.4,4.7-1.3,6.8c-0.8,2.1-2,3.9-3.5,5.4c-1.5,1.5-3.4,2.7-5.5,3.6c-2.2,0.9-4.6,1.3-7.2,1.3H141.4z M164.6,41.2
			c0-1.7-0.3-3.2-0.8-4.5c-0.5-1.3-1.3-2.5-2.2-3.4c-1-0.9-2.1-1.6-3.4-2.1c-1.3-0.5-2.8-0.7-4.3-0.7h-7.2c-0.5,0-0.7,0.2-0.7,0.7
			v34.4c0,0.5,0.2,0.7,0.7,0.7h7.2c1.6,0,3-0.2,4.3-0.7c1.3-0.5,2.4-1.2,3.4-2.1c1-0.9,1.7-2,2.2-3.4c0.5-1.3,0.8-2.9,0.8-4.6V41.2z
			"/>
		<path id="XMLID_218_" class="st0" d="M243.8,72.8c-0.7,0-1.2-0.2-1.6-0.6c-0.4-0.4-0.6-0.9-0.6-1.6V31.2c0-0.5-0.2-0.7-0.7-0.7
			h-10.7c-0.7,0-1.2-0.2-1.6-0.6c-0.4-0.4-0.6-0.9-0.6-1.6v-2.1c0-0.7,0.2-1.2,0.6-1.6c0.4-0.4,0.9-0.6,1.6-0.6h29.7
			c0.7,0,1.2,0.2,1.6,0.6c0.4,0.4,0.6,0.9,0.6,1.6v2.1c0,0.7-0.2,1.2-0.6,1.6c-0.4,0.4-0.9,0.6-1.6,0.6h-10.7
			c-0.5,0-0.7,0.2-0.7,0.7v39.4c0,0.7-0.2,1.2-0.6,1.6c-0.4,0.4-0.9,0.6-1.6,0.6H243.8z"/>
		<path id="XMLID_208_" class="st0" d="M321.4,72.8c-0.7,0-1.2-0.2-1.6-0.6c-0.4-0.4-0.6-0.9-0.6-1.6V26.2c0-0.7,0.2-1.2,0.6-1.6
			c0.4-0.4,0.9-0.6,1.6-0.6h12.2c1.9,0,3.7,0.3,5.4,1c1.7,0.7,3.2,1.6,4.4,2.9c1.3,1.2,2.3,2.7,3,4.3c0.7,1.7,1.1,3.5,1.1,5.4
			c0,1.7-0.3,3.3-0.9,4.8c-0.6,1.5-1.5,2.8-2.6,4.1c-0.4,0.5-0.4,0.9,0.1,1.4c2,1.5,3.5,3.1,4.6,5c1.1,1.8,1.6,3.9,1.6,6.3
			c0,2-0.4,3.8-1.1,5.4c-0.7,1.6-1.7,3.1-3,4.3c-1.3,1.2-2.7,2.2-4.4,2.9c-1.7,0.7-3.5,1-5.4,1H321.4z M333.1,45.2
			c0.9,0,1.7-0.2,2.7-0.5c0.9-0.3,1.7-0.8,2.5-1.4c0.7-0.6,1.3-1.4,1.8-2.3c0.5-1,0.7-2.1,0.7-3.4c0-1.3-0.2-2.4-0.7-3.3
			c-0.5-0.9-1.1-1.6-1.8-2.2c-0.7-0.6-1.6-1-2.5-1.3c-0.9-0.3-1.8-0.4-2.7-0.4h-6.3c-0.5,0-0.7,0.2-0.7,0.7v13.2
			c0,0.5,0.2,0.7,0.7,0.7H333.1z M336,66.3c0.9,0,1.7-0.1,2.6-0.4c0.9-0.3,1.7-0.7,2.5-1.3c0.7-0.6,1.3-1.3,1.8-2.2
			c0.5-0.9,0.7-2,0.7-3.3c0-1.3-0.2-2.4-0.7-3.4c-0.5-1-1.1-1.7-1.8-2.3c-0.7-0.6-1.6-1-2.5-1.4c-0.9-0.3-1.8-0.5-2.6-0.5h-9.2
			c-0.5,0-0.7,0.2-0.7,0.7v13.2c0,0.5,0.2,0.7,0.7,0.7H336z"/>
		<path id="XMLID_202_" class="st0" d="M367.3,72.8c-0.7,0-1.2-0.2-1.6-0.6c-0.4-0.4-0.6-0.9-0.6-1.6V26.2c0-0.7,0.2-1.2,0.6-1.6
			c0.4-0.4,0.9-0.6,1.6-0.6h2.5c0.7,0,1.2,0.2,1.6,0.6c0.4,0.4,0.6,0.9,0.6,1.6v44.4c0,0.7-0.2,1.2-0.6,1.6
			c-0.4,0.4-0.9,0.6-1.6,0.6H367.3z"/>
		<path id="XMLID_196_" class="st0" d="M389.1,72.8c-0.7,0-1.2-0.2-1.6-0.6c-0.4-0.4-0.6-0.9-0.6-1.6V69c0-0.6,0.1-1.1,0.3-1.6
			c0.2-0.5,0.5-1.1,1-1.8l23.3-34.2c0.1-0.2,0.2-0.5,0-0.6c-0.1-0.2-0.3-0.3-0.7-0.3h-19.6c-0.7,0-1.2-0.2-1.6-0.6
			c-0.4-0.4-0.6-0.9-0.6-1.6v-2.1c0-0.7,0.2-1.2,0.6-1.6c0.4-0.4,0.9-0.6,1.6-0.6h27.9c0.7,0,1.2,0.2,1.6,0.6
			c0.4,0.4,0.6,0.9,0.6,1.6v1.6c0,0.6-0.1,1.1-0.4,1.7c-0.3,0.6-0.6,1.1-1,1.7l-23.2,33.9c-0.2,0.3-0.3,0.6-0.2,0.8
			c0.1,0.2,0.4,0.3,0.8,0.3h22.5c0.7,0,1.2,0.2,1.6,0.6c0.4,0.4,0.6,0.9,0.6,1.6v2.2c0,0.7-0.2,1.2-0.6,1.6
			c-0.4,0.4-0.9,0.6-1.6,0.6H389.1z"/>
		<path id="XMLID_193_" class="st0" d="M305.9,70.5l-14.3-44.8c-0.2-0.8-0.6-1.3-1-1.5c-0.4-0.3-0.9-0.4-1.6-0.4h-5
			c-0.7,0-1.2,0.1-1.6,0.4c-0.3,0.2-0.6,0.6-0.8,1.1c-0.1,0.2-0.2,0.4-0.3,0.7L267,70.8c-0.4,1.3,0.1,2,1.5,2h2h1.5
			c0.3,0,0.6,0,0.9-0.1c0,0,0.1,0,0.1,0c0.1,0,0.2-0.1,0.3-0.1l0.1-0.1l0.2-0.1c0.4-0.3,0.6-0.7,0.8-1.2l2.7-9l0.3-0.9l0.8-2.9
			l7.5-25.3c0-0.1,0-0.1,0.1-0.2c0.1-0.4,0.4-0.6,0.7-0.6c0.3,0,0.6,0.3,0.7,0.8l5.7,18.9c0,0.1,0,0.2,0.1,0.3l2.8,9.7l2.7,9
			c0.3,1.1,1.1,1.7,2.4,1.7h2.4h1.2C305.8,72.5,306.3,71.8,305.9,70.5z"/>
		<path id="XMLID_190_" class="st0" d="M222.7,70.5l-14.3-44.8c-0.2-0.8-0.6-1.3-1-1.5c-0.4-0.3-0.9-0.4-1.6-0.4h-5
			c-0.7,0-1.2,0.1-1.6,0.4c-0.3,0.2-0.6,0.6-0.8,1.1c-0.1,0.2-0.2,0.4-0.3,0.7l-14.3,44.8c-0.4,1.3,0.1,2,1.5,2h2h1.5
			c0.3,0,0.6,0,0.9-0.1c0,0,0.1,0,0.1,0c0.1,0,0.2-0.1,0.3-0.1l0.1-0.1l0.2-0.1c0.4-0.3,0.6-0.7,0.8-1.2l2.7-9l0.3-0.9l0.8-2.9
			l7.5-25.3c0-0.1,0-0.1,0.1-0.2c0.1-0.4,0.4-0.6,0.7-0.6c0.3,0,0.6,0.3,0.7,0.8l11.2,37.9c0.3,1.1,1.1,1.7,2.4,1.7h2.4h1.2
			C222.6,72.5,223.1,71.8,222.7,70.5z"/>
	</g>
	<path id="XMLID_188_" class="st1" d="M55.8,41.7c-1.5,2.7-3.9,2.7-5.4,0L33.7,11c-1.5-2.7-0.2-5,3-5h32.9c3.1,0,4.5,2.2,3,5
		L55.8,41.7z"/>
	<path id="XMLID_187_" class="st2" d="M50.4,55.5c1.5-2.7,3.9-2.7,5.4,0l16.7,30.7c1.5,2.7,0.2,5-3,5H36.6c-3.1,0-4.5-2.2-3-5
		L50.4,55.5z"/>
	<path id="XMLID_186_" class="st3" d="M81.8,86.2c-1.5,2.7-3.9,2.7-5.4,0L59.6,55.5c-1.5-2.7-0.2-5,3-5h32.9c3.1,0,4.5,2.2,3,5
		L81.8,86.2z"/>
	<path id="XMLID_185_" class="st4" d="M29.9,86.2c-1.5,2.7-3.9,2.7-5.4,0L7.7,55.5c-1.5-2.7-0.2-5,3-5h32.9c3.1,0,4.5,2.2,3,5
		L29.9,86.2z"/>
	<path id="XMLID_184_" class="st5" d="M103,41.7c-1.5,2.7-3.9,2.7-5.4,0L80.8,11c-1.5-2.7-0.2-5,3-5h32.9c3.1,0,4.5,2.2,3,5
		L103,41.7z"/>
	<path id="XMLID_183_" class="st6" d="M24.4,11c1.5-2.7,3.9-2.7,5.4,0l16.7,30.7c1.5,2.7,0.2,5-3,5H10.7c-3.1,0-4.5-2.2-3-5L24.4,11
		z"/>
</g>
<path class="st0" d="M339.2,96.6c0-3.1,0.2-4.3,0.5-5.4c0.9-2.9,3.3-4.4,6.5-4.4c3.3,0,5.4,1.7,6.3,3.8c0.1,0.2,0.1,0.3-0.1,0.4
	l-1.7,0.8c-0.2,0.1-0.3,0-0.4-0.1c-0.9-1.7-2.1-2.5-4.2-2.5c-2.1,0-3.5,1-4.1,2.8c-0.2,0.7-0.4,1.8-0.4,4.7c0,2.9,0.1,4,0.4,4.7
	c0.6,1.8,2,2.8,4.1,2.8c1.9,0,3.5-0.9,4.1-2.7c0.2-0.6,0.4-1.6,0.4-3c0-0.1-0.1-0.2-0.2-0.2h-3.7c-0.2,0-0.3-0.1-0.3-0.3v-1.6
	c0-0.2,0.1-0.3,0.3-0.3h6c0.2,0,0.3,0.1,0.3,0.3v1.4c0,1.7-0.2,3.3-0.5,4.2c-0.9,2.9-3.3,4.5-6.4,4.5c-3.2,0-5.5-1.5-6.5-4.4
	C339.4,100.9,339.2,99.7,339.2,96.6"/>
<path class="st0" d="M367.7,92.6c0-2-1.3-3.1-3.5-3.1h-4.4c-0.1,0-0.2,0.1-0.2,0.2v6c0,0.1,0.1,0.2,0.2,0.2h4.4
	C366.4,95.7,367.7,94.6,367.7,92.6 M368.1,106.1c-0.2,0-0.3-0.1-0.4-0.3l-3.8-7.7h-4.2c-0.1,0-0.2,0.1-0.2,0.2v7.6
	c0,0.2-0.1,0.3-0.3,0.3h-1.9c-0.2,0-0.3-0.1-0.3-0.3V87.4c0-0.2,0.1-0.3,0.3-0.3h6.9c3.5,0,5.9,2.2,5.9,5.5c0,2.6-1.4,4.4-3.7,5.2
	l4,8c0.1,0.2,0,0.3-0.2,0.3H368.1z"/>
<path class="st0" d="M384.6,101.2c0.2-0.7,0.4-1.9,0.4-4.7c0-2.7-0.2-4-0.4-4.7c-0.6-1.8-1.9-2.8-4-2.8c-2.1,0-3.4,1-4,2.8
	c-0.2,0.7-0.4,1.9-0.4,4.7c0,2.7,0.2,4,0.4,4.7c0.6,1.8,1.9,2.8,4,2.8C382.6,104.1,384,103.1,384.6,101.2 M374.1,101.9
	c-0.4-1.1-0.5-2.2-0.5-5.4c0-3.1,0.1-4.3,0.5-5.4c1-2.9,3.3-4.4,6.4-4.4c3.2,0,5.5,1.5,6.5,4.4c0.4,1.1,0.5,2.2,0.5,5.4
	c0,3.1-0.1,4.3-0.5,5.4c-1,2.9-3.3,4.4-6.5,4.4C377.3,106.4,375,104.9,374.1,101.9"/>
<path class="st0" d="M391.3,99.5V87.4c0-0.2,0.1-0.3,0.3-0.3h1.9c0.2,0,0.3,0.1,0.3,0.3v12c0,3.1,1.7,4.6,4.2,4.6
	c2.5,0,4.2-1.6,4.2-4.6v-12c0-0.2,0.1-0.3,0.3-0.3h1.9c0.2,0,0.3,0.1,0.3,0.3v12.1c0,4.5-2.5,6.9-6.7,6.9
	C393.9,106.4,391.3,103.9,391.3,99.5"/>
<path class="st0" d="M419.9,92.8c0-2.1-1.4-3.3-3.7-3.3h-4.2c-0.1,0-0.2,0.1-0.2,0.2v6.4c0,0.1,0.1,0.2,0.2,0.2h4.2
	C418.5,96.1,419.9,94.8,419.9,92.8 M409.6,106.1c-0.2,0-0.3-0.1-0.3-0.3V87.4c0-0.2,0.1-0.3,0.3-0.3h6.7c3.7,0,6,2.2,6,5.7
	c0,3.4-2.4,5.7-6,5.7h-4.4c-0.1,0-0.2,0.1-0.2,0.2v7.2c0,0.2-0.1,0.3-0.3,0.3H409.6z"/>
</svg>
